<svg height="312" viewBox="0 0 312 312" width="312" xmlns="http://www.w3.org/2000/svg"><path d="m142.269 12.693c.973.254 2.323.237 3-.037s-.119-.481-1.769-.461-2.204.244-1.231.498m15.544-.01c.721.289 1.584.253 1.916-.079s-.258-.568-1.312-.525c-1.165.048-1.402.285-.604.604m9.187.385c7.509.931 30.058 8.2 41 13.217 8.014 3.675 14.195 7.383 20.36 12.215 15.841 12.416 20.676 16.47 23.555 19.75 3.403 3.876 6.085 4.868 6.085 2.25 0-2.344 2.198-1.767 4.764 1.25 15.98 18.79 23.448 32.988 29.777 56.611 1.306 4.873 3.026 9.856 3.824 11.073.797 1.217 1.66 3.08 1.916 4.139 1.117 4.609-.356-4.731-1.745-11.064-6.218-28.363-21.771-54.746-43.809-74.315-11.591-10.293-18.918-15.343-31.383-21.632-18.732-9.449-38.335-14.715-53.725-14.431l-7.119.132zm-36.171.436c-.277.277-3.164.98-6.416 1.563-21.996 3.939-50.408 19.056-69.413 36.933-2.936 2.761-1.545 1.936 4-2.376 22.79-17.717 43.972-28.438 65.5-33.152 4.4-.963 9.35-2.098 11-2.521l3-.771-3.583-.09c-1.971-.049-3.81.137-4.088.414m-48.573 48.141c-3.827 1.887-6.81 6.356-7.798 11.685-.755 4.069-.887 4.17-6.729 5.141-4.792.797-10.505 5.769-12.931 11.253-2.396 5.417-3.35 15.64-1.936 20.749.946 3.417.806 4.581-.998 8.307-1.792 3.702-2.038 5.697-1.688 13.688.374 8.563.763 10.069 4.605 17.822 4.075 8.224 12.218 18.695 14.562 18.725.636.008 5.162 2.033 10.057 4.5 4.894 2.467 9.009 4.485 9.143 4.485s-.217-1.819-.782-4.042c-.799-3.15-1.731-4.337-4.224-5.378-6.91-2.887-19.857-18.636-17.91-21.786 1.157-1.871 3.473-.518 5.324 3.11 2.154 4.223 11.249 14.096 12.984 14.096.628 0 1.065-2.322 1.065-5.654 0-5.346-.215-5.838-3.944-9.03-2.168-1.856-5.307-5.759-6.974-8.672-5.626-9.834-7.746-26.302-3.275-25.444 1.272.245 1.727 1.468 1.832 4.924.265 8.801 5.506 21.492 10.604 25.677 1.391 1.142 1.78.632 3.171-4.154 1.995-6.862 1.985-7.269-.273-10.493-5.986-8.545-7.696-27.991-3.31-37.642 3.624-7.974 10.425-13.856 13.02-11.261 1.755 1.755 1.437 2.408-2.303 4.719-2.237 1.383-4.436 4.139-6.25 7.832-2.466 5.022-2.788 6.766-2.711 14.698.071 7.445.537 9.994 2.695 14.75 1.434 3.162 2.998 5.75 3.475 5.75s1.833-1.306 3.013-2.903c1.793-2.425 1.988-3.452 1.188-6.243-1.63-5.685-1.106-14.931 1.126-19.854 2.742-6.048 5.458-8.813 11.416-11.623 5.64-2.659 9.301-2.895 14.75-.951l3.75 1.338v-4.514c0-2.717-.769-5.755-1.931-7.632-2.35-3.795-7.509-6.998-10.157-6.305-1.391.364-2.722-.508-4.667-3.058-5.474-7.177-19.08-10.509-26.989-6.61m28.744 1.855c1.638 1.743 3.408 2.5 5.849 2.5h3.5l-2.349-2.5c-1.638-1.743-3.408-2.5-5.849-2.5h-3.5zm15.736 10.678c2.406 3.638 2.771 5.188 2.821 11.974.031 4.287.347 8.086.703 8.441.356.356 1.747.371 3.092.033 1.953-.49 2.69-1.634 3.66-5.678 1.037-4.321.972-5.702-.444-9.41-2.323-6.081-5.778-9.538-9.534-9.538h-3.062zm-19.856 20.778c-7.45 4.935-10.71 13.076-8.801 21.978l1.044 4.865 3.724-1.59 3.723-1.591-.398-6.259c-.495-7.78 2.266-14.226 7.667-17.896l3.625-2.463h-3.06c-1.718 0-5.02 1.297-7.524 2.956m18.394 11.137c-4.667 2.31-8.09 7.001-8.942 12.251-.542 3.339-.696 3.438-5.954 3.875-13.364 1.108-22.316 16.933-21.09 37.281.935 15.512 3.916 21.478 15.554 31.13 9.58 7.944 10.914 8.421 6.788 2.423-9.613-13.976-11.376-33.21-4.359-47.553 3.108-6.352 6.546-10.366 10.689-12.48 3.274-1.67 4.018-1.752 5.013-.553.942 1.135.546 1.73-2.04 3.067-10.318 5.336-16.479 21.374-13.955 36.333.643 3.816 2.44 9.624 3.993 12.908 3.44 7.273 13.842 18.533 21.181 22.926 8.772 5.252 9.457 5.139 4.919-.809-2.263-2.965-4.363-6.292-4.666-7.392-.304-1.1-2.511-3.451-4.904-5.225-3.06-2.269-5.338-5.231-7.676-9.984-3.157-6.417-3.325-7.317-3.324-17.775.002-9.634.298-11.581 2.361-15.516 6.038-11.521 16.038-16.663 27.198-13.986 8.706 2.089 14.467 9.84 12.046 16.208-.849 2.233-.691 2.624 1.208 2.987 3.646.697 8.437-1.077 10.721-3.971 2.869-3.634 2.331-11.156-1.056-14.761-2.07-2.203-2.176-2.743-1.026-5.217 3.546-7.626 2.99-13.503-1.755-18.532-4.049-4.293-9.115-5.413-14.749-3.262l-4.617 1.764-3.166-2.981c-3.233-3.044-8.304-5.25-12.065-5.248-1.156 0-4.002.942-6.327 2.092m21.167-.158c1.439 1.589 2.174 1.742 4.124.854 3.201-1.459 2.114-2.789-2.279-2.789-3.492 0-3.545.056-1.845 1.935m22.559 3.463c0 .219 1.12 2.356 2.488 4.75 2.81 4.916 3.294 12.32 1.134 17.352-1.139 2.652-1.052 3.321.742 5.763 2.994 4.072 2.891 12.542-.202 16.729-1.286 1.741-2.174 3.329-1.974 3.53.882.882 7.03-4.043 8.433-6.755 2.125-4.11 1.958-11.121-.359-15.048-1.727-2.927-1.772-3.554-.48-6.72 3.159-7.741-1.049-19.999-6.864-19.999-1.605 0-2.918.179-2.918.398m130.232 33.602c0 1.925.206 2.713.457 1.75.252-.963.252-2.537 0-3.5-.251-.963-.457-.175-.457 1.75m-169.973.927c-8.245 5.973-12.296 20.57-8.922 32.145 1.655 5.675 6.951 14.928 8.544 14.928 1.483 0 1.892-10.222.522-13.038-5.181-10.646-2.466-28.834 5.204-34.867 4.395-3.457-.473-2.699-5.348.832m171.027 12.573c.008 2.75.202 3.756.432 2.236.229-1.52.223-3.77-.014-5s-.425.014-.418 2.764m-1 13c.008 2.75.202 3.756.432 2.236.229-1.52.223-3.77-.014-5s-.425.014-.418 2.764m-142.953-2.316c-2.139 1.034-2.123 1.093 1.242 4.458 2.264 2.264 3.623 4.744 4.045 7.384.712 4.449 1.009 4.622 4.157 2.417 3.765-2.637 2.111-10.307-2.994-13.882-2.548-1.785-3.433-1.837-6.45-.377m42.405 4.066c-1.498 1.139-1.429 1.496.783 4.025 2.126 2.431 2.677 2.618 4.453 1.509 2.509-1.567 2.564-2.987.197-5.129-2.19-1.982-3.254-2.062-5.433-.405m-56.32 1.719c-3.124 1.264-7.233 6.63-8.403 10.975-2.428 9.018 3.424 21.112 12.985 26.836 9.058 5.424 14.803 6.723 29.5 6.674 17.117-.058 25.084-2.273 45.089-12.538 15.711-8.062 23.301-10.894 29.343-10.948 5.901-.052 7.316-1.856 6.915-8.816-.19-3.293-.008-6.325.404-6.736.412-.412.749-1.128.749-1.591 0-1.486-3.854 1.51-4.342 3.375-.332 1.27-1.455 1.81-3.814 1.835-9.963.105-22.552 4.922-38.795 14.846-10.623 6.49-18.95 9.124-31.049 9.824-11.807.683-19.441-.808-25.713-5.024-6.273-4.215-9.287-8.83-9.287-14.218 0-5.19 2.156-8.078 7.36-9.859l3.859-1.322-2.298-2.141c-2.423-2.257-8.428-2.82-12.503-1.172m42.228 5.483c-1.455 1.349-2.646 3.208-2.646 4.132s-.955 3.226-2.123 5.115c-2.488 4.026-2.151 10.235.728 13.417 1.856 2.051 2.228 2.043 12.634-.261l4.74-1.049-4.536-4.153c-3.32-3.04-4.689-5.143-5.111-7.849-.692-4.438.111-8.104 2.241-10.234 2.782-2.782-2.883-1.939-5.927.882m112.062 6.725c-.985 5.128-3.102 13.131-4.704 17.786-1.602 4.654-2.761 8.613-2.577 8.797 1.327 1.327 9.99-29.996 9.381-33.92-.169-1.092-1.114 2.21-2.1 7.337m-236.634-6.284c-3.514.959-3.62 2.748-.205 3.431 6.512 1.302 18.615 8.427 31.3 18.425 21.669 17.08 29.801 21.976 44.434 26.753 8.934 2.916 12.094 3.099 15.259.882 2.827-1.98 2.156-2.655-4.862-4.89-15.355-4.891-26.475-11.366-45.5-26.492-6.05-4.81-13.25-10.108-16-11.774-8.154-4.94-19.119-7.784-24.426-6.335m133.146 1.357c-1.04 1.268-1.544 3.885-1.335 6.923.167 2.432 5.001 7.827 7.013 7.827.946 0 2.563-.617 3.594-1.37 1.777-1.3 1.683-1.537-1.809-4.604-2.886-2.534-3.683-3.968-3.683-6.63 0-3.532-1.804-4.557-3.78-2.146m-40.94 1.77c-3.252 1.309-3.992 5.629-1.686 9.839 2.131 3.89 5.18 6.379 10.476 8.552 3.257 1.337 3.816 1.304 6.387-.383l2.817-1.848-4.277-2.182c-6.072-3.097-9.997-7.7-9.997-11.721 0-3.492-.26-3.649-3.72-2.257m105.214 10.986c-.998 1.104-1.556 2.265-1.24 2.581.95.951 4.746-1.547 4.746-3.122 0-2.038-1.362-1.828-3.506.541m-202.416 4.959-3.422 1.748 3.648.684c5.584 1.048 12.815 5.26 28.943 16.859 16.468 11.844 28.788 19.543 37.29 23.303 7.127 3.152 21.828 7.452 25.325 7.408 2.331-.03 7.138-2.925 7.138-4.3 0-.281-4.387-1.88-9.75-3.552-16.866-5.258-28.32-11.698-54.25-30.502-18.458-13.386-26.361-16.022-34.922-11.648m204.907 12.081-2.485 1.91 2.281.022c1.255.012 2.548-.672 2.874-1.521.911-2.374.056-2.505-2.67-.411m2.515 18.954c-3.35 2.218-2.915 2.602.953.839 1.401-.638 2.547-1.538 2.547-2 0-1.134-.071-1.11-3.5 1.161m-76.867 2.46c-2.173 1.744-2.644 2.699-1.946 3.944.817 1.461 1.173 1.374 3.207-.791 1.258-1.339 2.134-3.114 1.947-3.944-.277-1.226-.881-1.077-3.208.791m-12.873 18.015c-1.76 1.549-2.518 2.991-2.12 4.03.527 1.373 1.057 1.201 3.491-1.13 2.686-2.574 3.813-5.415 2.119-5.343-.412.017-1.983 1.117-3.49 2.443" fill-rule="evenodd"/></svg>